<?xml version="1.0" encoding="UTF-8"?>
<svg id="Layer_1" data-name="Layer 1" xmlns="http://www.w3.org/2000/svg" viewBox="0 0 800 800">
  <defs>
    <style>
      .cls-1 {
        fill: #fff;
      }
    </style>
  </defs>
  <path class="cls-1" d="M612,148c-24,0-48,20-48,48s20,48,48,48,48-20,48-48c-4-28-24-48-48-48Z"/>
  <path class="cls-1" d="M400,208c-108,0-196,88-196,196s88,196,196,196,196-88,196-196c4-108-84-196-196-196ZM400,532c-68,0-128-56-128-128,0-68,56-128,128-128,68,0,128,56,128,128s-56,128-128,128Z"/>
  <path class="cls-1" d="M560,0H240C108,0,0,108,0,240v320c0,132,108,240,240,240h320c132,0,240-108,240-240V240C800,108,692,0,560,0ZM724,560c0,92-76,164-164,164H240c-92,0-164-76-164-164V240c0-92,76-164,164-164h320c92,0,164,76,164,164v320Z"/>
</svg>